<svg xmlns="http://www.w3.org/2000/svg" viewBox="0 0 66.1458 16.9333"><defs><path id="a" d="M-.7536 37.8307H200.812v12.3468H-.7536z"/></defs><path d="M3.844 8.802h3.3974L5.168 2.2918l-.1914 2.8472zM2.6637 0h4.8967l3.5729 11.1806 1.0049 2.0486H8.677l-.7816-2.3785-5.8378.0174.9889.5381-.5742 1.823H0l.957-2.0313 3.1263-10zm.3828 11.4062zM20.6875 11.1806l.989-2.0487q.1594.6945.4944 2.0487.335 1.3715.4945 2.0486h-5.3115q-2.584 0-4.0195-2.3264-1.1324-1.823-1.1324-4.3056 0-2.7778 1.3557-4.6528.5424-.7118 1.2123-1.1805L13.3982 0h8.693v2.8472l-1.2442-.7986h-2.2809q-1.7226 0-2.6158 1.823-.5902 1.2152-.5902 2.7603 0 2.1702 1.0368 3.4723.8613 1.059 2.1533 1.0764zM31.6294 11.1806l.989-2.0487q.1594.6945.4944 2.0487.335 1.3715.4945 2.0486h-5.3115q-2.584 0-4.0195-2.3264-1.1324-1.823-1.1324-4.3056 0-2.7778 1.3557-4.6528.5423-.7118 1.2123-1.1805L24.34 0h8.693v2.8472l-1.2442-.7986H29.508q-1.7226 0-2.6158 1.823-.5902 1.2152-.5902 2.7603 0 2.1702 1.0368 3.4723.8613 1.059 2.1533 1.0764zM35.1385 1.5278L33.3042 0h10.1125v2.8472l-1.2441-.7986h-5.9017l1.8184.7639v2.6042h3.7483l-.654 2.0486h-3.0943v3.7153h3.9238l1.0048-2.0487.973 4.0973H34.644l.4945-2.0486zM46.83 2.0486l1.8184.7639v3.4028h2.233q1.1803 0 1.627-1.1285.1754-.4514.1754-.9549 0-1.1632-.7656-1.7534-.4626-.3299-1.0527-.3299zm1.8184 6.198v2.934l.4944 2.0486h-3.9397l.4945-2.0486V1.5278L43.8633 0h8.1984q2.1374 0 3.19 1.7535.6381 1.0764.6381 2.4132 0 1.8923-1.1325 3.0555-1.0048 1.0243-2.5201 1.0243zM57.7879 2.0486L55.6027 0h10.5431v2.8472l-1.2281-.7986H60.962l1.8343.7639v8.368l.4785 2.0487H59.335l.4944-2.0486v-9.132z" style="line-height:1.25;-inkscape-font-specification:'a Absolute Empire';white-space:pre" font-family="a Absolute Empire" font-size="10.5833" font-weight="400"/><g aria-label="is Controlled Contraption for Education &amp; Program Testing" style="line-height:1.25;-inkscape-font-specification:'DejaVu Sans'" stroke-width=".0535" font-family="Latin Modern Roman Demi" font-size="2.1417" font-weight="400"><path d="M.5981 16.3464v-.1373H.443v-1.177l-.4355.0234v.1373c.1477 0 .1652 0 .1652.1139v.9024H0v.1373l.3053-.0088zM.478 14.5679c0-.1227-.0876-.2278-.1952-.2278-.1176 0-.1977.111-.1977.2278 0 .1226.0876.2277.1952.2277.1176 0 .1977-.111.1977-.2277zM1.5316 15.9404c0-.1723-.0776-.2628-.1126-.3008-.0826-.0963-.1727-.1168-.2753-.1402-.1176-.0292-.2528-.0584-.2528-.2015 0-.1781.1752-.181.2228-.181.2202 0 .2327.1869.2377.2482.0025.0438.0075.0555.0576.0555.06 0 .06-.0146.06-.0818v-.2336c0-.0555 0-.0818-.045-.0818-.02 0-.0701.0321-.1026.0526-.0426-.0292-.1126-.0526-.2077-.0526-.1802 0-.4005.073-.4005.3826 0 .143.0676.219.0976.254.0801.0935.1752.1169.2903.1432.1001.0233.2528.0584.2528.2394 0 .1723-.1126.2161-.2252.2161-.1802 0-.2528-.1372-.2953-.33-.01-.0408-.0125-.0496-.0601-.0496-.06 0-.06.0175-.06.0847v.3183c0 .0555 0 .0818.045.0818.0175 0 .0225 0 .0676-.035a.8268.8268 0 01.06-.0468c.1001.0818.2052.0818.2428.0818.3078 0 .4029-.2045.4029-.4235zM4.1143 15.6834c0-.0584-.0176-.0613-.0601-.0613-.0325 0-.055 0-.0576.0496 0 .3855-.2602.5695-.4755.5695-.1776 0-.3528-.0905-.4454-.2687-.0876-.1723-.1026-.362-.1026-.6278 0-.187 0-.4673.1176-.6571.1251-.2015.3178-.2395.4254-.2395.2027 0 .413.181.4655.6075.005.0467.0225.0467.065.0467.0652 0 .0677-.0059.0677-.0818v-.6279c0-.0555 0-.0817-.045-.0817-.0226 0-.0276.0058-.0476.0262l-.1452.1548c-.1151-.1168-.2427-.181-.408-.181-.4904 0-.8783.3738-.8783 1.0338 0 .6512.3779 1.0338.8809 1.0338.408 0 .6432-.3826.6432-.695zM5.4356 15.7068c0-.4118-.2202-.6834-.5556-.6834-.3228 0-.553.26-.553.6834 0 .4205.2352.657.553.657.3304 0 .5556-.2482.5556-.657zm-.3203-.0292c0 .1372 0 .2891-.025.3884-.025.1139-.1177.181-.2078.181-.0925 0-.1876-.0642-.2152-.1927-.02-.0964-.02-.2745-.02-.3767 0-.1373 0-.2774.0225-.3709.025-.111.1177-.1781.2102-.1781.1077 0 .1902.0846.2128.1781.0225.0964.0225.2366.0225.3709zM6.8921 16.3464v-.1373h-.1727v-.7651c0-.219-.06-.4118-.3378-.4118-.1802 0-.3078.1197-.3804.295h-.0025v-.295l-.4304.0233v.1373c.1551 0 .1726 0 .1726.1139v.9024h-.1726v.1373l.3153-.0088.3153.0088v-.1373h-.1727v-.6104c0-.3241.1927-.4614.3179-.4614.04 0 .09.0146.09.2716v.8002h-.1626v.1373l.3078-.0088zM7.663 15.99v-.1606h-.1177v.1577c0 .1577-.04.26-.1126.26-.1126 0-.1126-.1899-.1126-.2453v-.8148h.3028v-.1373H7.32v-.5578h-.1177c-.0025.2453-.0725.5783-.3253.59v.105h.1577v.8002c0 .3154.2027.3768.3653.3768.1902 0 .2628-.1986.2628-.3738zM8.8066 15.2717c0-.1636-.1476-.2395-.2678-.2395-.115 0-.2202.07-.2753.2657H8.261v-.2657l-.4154.0233v.1373c.1552 0 .1727 0 .1727.1139v.9024h-.1727v.1373l.3153-.0088c.0951 0 .2553 0 .3454.0088v-.1373h-.2177v-.5227c0-.219.0375-.549.2602-.549 0 0-.0475.0496-.0475.1343 0 .1197.08.1781.1526.1781.0726 0 .1527-.0613.1527-.1781zM10.0554 15.7068c0-.4118-.2202-.6834-.5556-.6834-.3228 0-.553.26-.553.6834 0 .4205.2352.657.553.657.3304 0 .5556-.2482.5556-.657zm-.3203-.0292c0 .1372 0 .2891-.025.3884-.025.1139-.1177.181-.2078.181-.0926 0-.1877-.0642-.2152-.1927-.02-.0964-.02-.2745-.02-.3767 0-.1373 0-.2774.0225-.3709.025-.111.1176-.1781.2102-.1781.1076 0 .1902.0846.2127.1781.0226.0964.0226.2366.0226.3709zM10.8087 16.3464v-.1373h-.1727v-1.8895l-.443.0234v.1372c.1552 0 .1727 0 .1727.114v1.6149h-.1727v.1373l.3079-.0088zM11.5044 16.3464v-.1373h-.1727v-1.8895l-.443.0234v.1372c.1552 0 .1727 0 .1727.114v1.6149h-.1726v.1373l.3078-.0088zM12.6155 16.0047c0-.0526-.0475-.0526-.06-.0526-.0426 0-.0476.0146-.06.0555-.0601.1781-.2053.2395-.3054.2395-.2803 0-.2803-.365-.2803-.5374h.6257c.0625 0 .08-.0029.08-.0847 0-.2599-.09-.6016-.478-.6016-.3228 0-.548.257-.548.6659 0 .4234.2503.6746.578.6746.3354 0 .448-.2979.448-.3592zm-.2377-.3914h-.468c.0025-.1489.01-.4847.2303-.4847.2377 0 .2377.4176.2377.4847zM14.037 16.3464v-.1373c-.1551 0-.1727 0-.1727-.1139v-1.7756l-.443.0234v.1372c.1552 0 .1728 0 .1728.114v.549c-.1127-.1022-.2153-.111-.2753-.111-.2978 0-.5481.2336-.5481.6658 0 .444.2453.6659.523.6659.1027 0 .2003-.038.2853-.1198v.1198zm-.458-.2746c-.0575.1052-.1501.187-.2627.187-.0926 0-.1652-.073-.1977-.184-.0276-.0993-.0276-.2716-.0276-.3738 0-.1169 0-.2716.03-.3739.0376-.1168.1202-.1898.2228-.1898.0776 0 .1677.0438.2352.1548zM16.5771 15.6834c0-.0584-.0175-.0613-.06-.0613-.0325 0-.055 0-.0576.0496 0 .3855-.2602.5695-.4755.5695-.1777 0-.3528-.0905-.4454-.2687-.0876-.1723-.1026-.362-.1026-.6278 0-.187 0-.4673.1176-.6571.1251-.2015.3178-.2395.4254-.2395.2027 0 .413.181.4655.6075.005.0467.0225.0467.065.0467.0652 0 .0677-.0059.0677-.0818v-.6279c0-.0555 0-.0817-.045-.0817-.0226 0-.0276.0058-.0476.0262l-.1452.1548c-.1151-.1168-.2427-.181-.408-.181-.4904 0-.8783.3738-.8783 1.0338 0 .6512.3779 1.0338.8809 1.0338.408 0 .6432-.3826.6432-.695zM17.8985 15.7068c0-.4118-.2202-.6834-.5556-.6834-.3228 0-.553.26-.553.6834 0 .4205.2352.657.553.657.3304 0 .5556-.2482.5556-.657zm-.3203-.0292c0 .1372 0 .2891-.025.3884-.025.1139-.1177.181-.2078.181-.0926 0-.1877-.0642-.2152-.1927-.02-.0964-.02-.2745-.02-.3767 0-.1373 0-.2774.0225-.3709.025-.111.1176-.1781.2102-.1781.1076 0 .1902.0846.2128.1781.0225.0964.0225.2366.0225.3709zM19.355 16.3464v-.1373h-.1727v-.7651c0-.219-.06-.4118-.3378-.4118-.1802 0-.3078.1197-.3804.295h-.0025v-.295l-.4304.0233v.1373c.1551 0 .1727 0 .1727.1139v.9024h-.1727v.1373l.3153-.0088.3153.0088v-.1373h-.1726v-.6104c0-.3241.1927-.4614.3178-.4614.04 0 .09.0146.09.2716v.8002h-.1626v.1373l.3078-.0088zM20.1258 15.99v-.1606h-.1176v.1577c0 .1577-.04.26-.1126.26-.1127 0-.1127-.1899-.1127-.2453v-.8148h.3029v-.1373h-.3028v-.5578h-.1177c-.0024.2453-.0725.5783-.3253.59v.105h.1577v.8002c0 .3154.2027.3768.3653.3768.1902 0 .2628-.1986.2628-.3738zM21.2695 15.2717c0-.1636-.1477-.2395-.2678-.2395-.1151 0-.2202.07-.2753.2657h-.0024v-.2657l-.4155.0233v.1373c.1552 0 .1727 0 .1727.1139v.9024h-.1727v.1373l.3154-.0088c.095 0 .2552 0 .3453.0088v-.1373h-.2177v-.5227c0-.219.0375-.549.2603-.549 0 0-.0476.0496-.0476.1343 0 .1197.0801.1781.1527.1781s.1526-.0613.1526-.1781zM22.5408 16.2763c0-.0584-.025-.0643-.0526-.0672-.1176-.0087-.1176-.0467-.1176-.108v-.6309c0-.2774-.1852-.4468-.493-.4468-.0826 0-.4104.0059-.4104.2687 0 .1285.0876.184.1552.184.0775 0 .1576-.0614.1576-.184 0-.0935-.0575-.146-.0575-.146.0525-.0117.0725-.0175.1476-.0175.1502 0 .2152.1401.2152.3387v.1051c-.3603.0088-.6882.149-.6882.4556 0 .2424.2353.3359.423.3359.1526 0 .2552-.1022.3078-.2337 0 .0614 0 .2161.2277.2161h.1051c.05 0 .0801 0 .0801-.07zm-.4555-.333c0 .2512-.1626.3154-.2352.3154-.1026 0-.1602-.1197-.1602-.2307 0-.3212.3304-.3563.3954-.362zM23.8622 15.6951c0-.4293-.2328-.663-.513-.663-.1127 0-.2178.041-.3104.1257v-.1256l-.443.0233v.1373c.0476 0 .0977 0 .1252.0059.0475.0087.0475.032.0475.0905v1.4865h-.1726v.1372l.3153-.0087.3153.0087v-.1372h-.1727v-.517c.0751.0701.1627.1052.2578.1052.2953 0 .5506-.2278.5506-.6688zm-.3204 0c0 .4089-.1301.5636-.2527.5636-.1101 0-.1877-.0846-.2353-.1723v-.7739c.0626-.0905.1477-.1635.2603-.1635.1276 0 .2277.187.2277.5461zM24.7806 15.99v-.1606h-.1176v.1577c0 .1577-.04.26-.1126.26-.1126 0-.1126-.1899-.1126-.2453v-.8148h.3028v-.1373h-.3028v-.5578H24.32c-.0024.2453-.0725.5783-.3253.59v.105h.1577v.8002c0 .3154.2027.3768.3654.3768.1901 0 .2627-.1986.2627-.3738zM25.5865 16.3464v-.1373h-.1552v-1.177l-.4355.0234v.1373c.1477 0 .1652 0 .1652.1139v.9024h-.1727v.1373l.3054-.0088zm-.1202-1.7785c0-.1227-.0876-.2278-.1952-.2278-.1176 0-.1977.111-.1977.2278 0 .1226.0876.2277.1952.2277.1176 0 .1977-.111.1977-.2277zM26.7977 15.7068c0-.4118-.2202-.6834-.5556-.6834-.3228 0-.553.26-.553.6834 0 .4205.2352.657.553.657.3304 0 .5556-.2482.5556-.657zm-.3203-.0292c0 .1372 0 .2891-.025.3884-.025.1139-.1177.181-.2078.181-.0926 0-.1877-.0642-.2152-.1927-.02-.0964-.02-.2745-.02-.3767 0-.1373 0-.2774.0225-.3709.025-.111.1176-.1781.2102-.1781.1077 0 .1902.0846.2128.1781.0225.0964.0225.2366.0225.3709zM28.2542 16.3464v-.1373h-.1727v-.7651c0-.219-.06-.4118-.3378-.4118-.1802 0-.3078.1197-.3804.295h-.0025v-.295l-.4304.0233v.1373c.1552 0 .1727 0 .1727.1139v.9024h-.1727v.1373l.3153-.0088.3153.0088v-.1373h-.1726v-.6104c0-.3241.1927-.4614.3178-.4614.04 0 .09.0146.09.2716v.8002h-.1626v.1373l.3078-.0088zM30.0911 14.5562c0-.1227-.0876-.2541-.2678-.2541-.2302 0-.488.1197-.488.4527v.295h-.1451v.1372h.1451v1.0221h-.1726v.1373l.3153-.0088c.095 0 .2552 0 .3453.0088v-.1373h-.2177V15.187h.2328v-.1373h-.2478v-.2979c0-.3416.1977-.3446.2252-.3446.0075 0 .0175 0 .0276.0029-.025.0204-.0601.07-.0601.146 0 .1256.0876.181.1527.181.075 0 .1551-.0613.1551-.181z" style="-inkscape-font-specification:'Latin Modern Roman Demi'"/><path d="M31.0396 15.7068c0-.4118-.2202-.6834-.5556-.6834-.3228 0-.553.26-.553.6834 0 .4205.2352.657.553.657.3304 0 .5556-.2482.5556-.657zm-.3203-.0292c0 .1372 0 .2891-.025.3884-.025.1139-.1177.181-.2078.181-.0926 0-.1877-.0642-.2152-.1927-.02-.0964-.02-.2745-.02-.3767 0-.1373 0-.2774.0225-.3709.025-.111.1176-.1781.2102-.1781.1076 0 .1902.0846.2127.1781.0226.0964.0226.2366.0226.3709zM32.1132 15.2717c0-.1636-.1476-.2395-.2678-.2395-.115 0-.2202.07-.2753.2657h-.0024v-.2657l-.4154.0233v.1373c.1551 0 .1726 0 .1726.1139v.9024h-.1726v.1373l.3153-.0088c.095 0 .2553 0 .3453.0088v-.1373h-.2177v-.5227c0-.219.0376-.549.2603-.549 0 0-.0476.0496-.0476.1343 0 .1197.0801.1781.1527.1781s.1527-.0613.1527-.1781zM34.5858 15.5462h-.1177c-.0525.3796-.1026.6629-.518.6629h-.2578v-.8235h.055c.2278 0 .2378.1285.2378.3416h.1177v-.8206h-.1177c0 .2132-.01.3417-.2377.3417h-.055v-.7505h.2477c.3879 0 .4204.2394.458.5665h.1176l-.0776-.7038h-1.3364v.1373h.2353v1.7113h-.2353v.1373h1.369zM36.0072 16.3464v-.1373c-.1551 0-.1726 0-.1726-.1139v-1.7756l-.443.0234v.1372c.1552 0 .1727 0 .1727.114v.549c-.1126-.1022-.2153-.111-.2753-.111-.2978 0-.548.2336-.548.6658 0 .444.2452.6659.523.6659.1026 0 .2002-.038.2853-.1198v.1198zm-.458-.2746c-.0575.1052-.1501.187-.2627.187-.0926 0-.1652-.073-.1977-.184-.0276-.0993-.0276-.2716-.0276-.3738 0-.1169 0-.2716.03-.3739.0376-.1168.1202-.1898.2228-.1898.0776 0 .1677.0438.2353.1548zM37.4337 16.3464v-.1373c-.1552 0-.1727 0-.1727-.1139v-1.063l-.458.0233v.1373c.1552 0 .1727 0 .1727.1139v.5636c0 .2103-.0876.3884-.2477.3884-.1577 0-.1602-.0642-.1602-.219v-1.0075l-.458.0233v.1373c.1552 0 .1727 0 .1727.1139v.6834c0 .292.1677.3738.4104.3738.0651 0 .2002 0 .2953-.1986h.0025v.1986zM38.4798 16.0047c0-.041-.035-.041-.06-.041-.0376 0-.0476.003-.0576.038-.0175.0585-.0726.2454-.2578.2454-.09 0-.1677-.0643-.2127-.1782-.045-.1139-.0476-.2453-.0476-.3855 0-.181 0-.5432.2328-.5432.045 0 .0726.006.1126.0147-.0225.0233-.05.07-.05.1372 0 .1285.0875.184.1551.184.0776 0 .1577-.0613.1577-.184 0-.1927-.1852-.2687-.383-.2687-.3303 0-.5455.2658-.5455.6746 0 .4323.2428.6659.538.6659.3404 0 .418-.3271.418-.3592zM39.7536 16.2763c0-.0584-.025-.0643-.0525-.0672-.1177-.0087-.1177-.0467-.1177-.108v-.6309c0-.2774-.1852-.4468-.493-.4468-.0826 0-.4104.0059-.4104.2687 0 .1285.0876.184.1552.184.0775 0 .1576-.0614.1576-.184 0-.0935-.0575-.146-.0575-.146.0525-.0117.0725-.0175.1476-.0175.1502 0 .2152.1401.2152.3387v.1051c-.3603.0088-.6882.149-.6882.4556 0 .2424.2353.3359.423.3359.1526 0 .2552-.1022.3078-.2337 0 .0614 0 .2161.2277.2161h.1051c.05 0 .0801 0 .0801-.07zm-.4555-.333c0 .2512-.1626.3154-.2352.3154-.1026 0-.1602-.1197-.1602-.2307 0-.3212.3304-.3563.3954-.362zM40.602 15.99v-.1606h-.1176v.1577c0 .1577-.04.26-.1127.26-.1126 0-.1126-.1899-.1126-.2453v-.8148h.3028v-.1373h-.3028v-.5578h-.1176c-.0024.2453-.0726.5783-.3253.59v.105h.1576v.8002c0 .3154.2027.3768.3654.3768.1902 0 .2628-.1986.2628-.3738zM41.4078 16.3464v-.1373h-.1551v-1.177l-.4355.0234v.1373c.1477 0 .1652 0 .1652.1139v.9024h-.1727v.1373l.3053-.0088zm-.1201-1.7785c0-.1227-.0876-.2278-.1952-.2278-.1176 0-.1977.111-.1977.2278 0 .1226.0876.2277.1952.2277.1176 0 .1977-.111.1977-.2277zM42.619 15.7068c0-.4118-.2202-.6834-.5555-.6834-.3228 0-.553.26-.553.6834 0 .4205.2352.657.553.657.3303 0 .5556-.2482.5556-.657zm-.3203-.0292c0 .1372 0 .2891-.025.3884-.025.1139-.1176.181-.2077.181-.0926 0-.1877-.0642-.2152-.1927-.02-.0964-.02-.2745-.02-.3767 0-.1373 0-.2774.0225-.3709.025-.111.1176-.1781.2102-.1781.1076 0 .1902.0846.2127.1781.0226.0964.0226.2366.0226.3709zM44.0756 16.3464v-.1373h-.1727v-.7651c0-.219-.06-.4118-.3379-.4118-.1801 0-.3078.1197-.3803.295h-.0025v-.295l-.4304.0233v.1373c.1551 0 .1726 0 .1726.1139v.9024h-.1726v.1373l.3153-.0088.3153.0088v-.1373h-.1727v-.6104c0-.3241.1927-.4614.3179-.4614.04 0 .09.0146.09.2716v.8002h-.1626v.1373l.3078-.0088zM46.7358 15.187v-.1373a3.776 3.776 0 01-.2477.0087c-.0276 0-.2378-.0028-.3053-.0087v.1373c.025 0 .1927 0 .1927.035 0 .0146-.1477.2979-.1677.3388-.0426.0876-.1151.222-.2002.3387-.0876-.1226-.2878-.4205-.3754-.6716.04-.0468.3053-.3417.3053-.5578 0-.149-.0626-.3826-.2478-.3826-.1902 0-.4154.181-.4154.5169 0 .2336.0626.4585.1026.5724-.01.0087-.1276.146-.1551.1781-.0476.0555-.1252.146-.1377.1694a.4074.4074 0 00-.0625.222c0 .2453.2027.4322.453.4322.1851 0 .3353-.0935.4379-.187.1126.0994.2803.187.453.187.1977 0 .3503-.1548.3553-.3768h-.1176c-.01.1986-.1677.2395-.2227.2395-.1302 0-.2878-.222-.3003-.2395.1326-.181.2327-.3825.3453-.6074.0075-.0204.0426-.0905.0576-.1168.035-.07.0375-.073.09-.0818.0551-.0087.1352-.0087.1627-.0087zm-.916-.5199c0 .0935-.035.219-.2227.4498-.0375-.1256-.0625-.2833-.0625-.4206 0-.2394.0976-.3037.1602-.3037.12 0 .125.2483.125.2745zm.0025 1.4427c-.085.07-.1952.1314-.3228.1314-.0726 0-.1577-.038-.1577-.403 0-.0672 0-.2453.0751-.3592.1001.2395.2378.4527.4054.6308zM49.2634 14.9125c0-.3184-.2102-.5695-.583-.5695h-.8985v.1372h.2353v1.7289h-.2353v.1373c.0876-.0088.3128-.0088.413-.0088.1 0 .3253 0 .4129.0088v-.1373h-.2353v-.7447h.3304c.3078 0 .5605-.2044.5605-.552zm-.3829 0c0 .2511 0 .4322-.3028.4322h-.2202v-.8645h.2202c.3028 0 .3028.1782.3028.4323zM50.4071 15.2717c0-.1636-.1476-.2395-.2678-.2395-.115 0-.2202.07-.2752.2657h-.0025v-.2657l-.4154.0233v.1373c.1551 0 .1727 0 .1727.1139v.9024h-.1727v.1373l.3153-.0088c.0951 0 .2553 0 .3454.0088v-.1373h-.2178v-.5227c0-.219.0376-.549.2603-.549 0 0-.0475.0496-.0475.1343 0 .1197.08.1781.1526.1781.0726 0 .1527-.0613.1527-.1781zM51.656 15.7068c0-.4118-.2203-.6834-.5557-.6834-.3228 0-.553.26-.553.6834 0 .4205.2352.657.553.657.3304 0 .5556-.2482.5556-.657zm-.3204-.0292c0 .1372 0 .2891-.025.3884-.025.1139-.1177.181-.2078.181-.0926 0-.1877-.0642-.2152-.1927-.02-.0964-.02-.2745-.02-.3767 0-.1373 0-.2774.0225-.3709.025-.111.1177-.1781.2102-.1781.1077 0 .1902.0846.2128.1781.0225.0964.0225.2366.0225.3709zM52.9422 15.187c0-.0672-.0375-.1694-.1401-.1694-.0375 0-.1276.0087-.2227.108-.1001-.0817-.2253-.0934-.2953-.0934-.3029 0-.4505.2044-.4505.4322 0 .1256.0475.2424.1201.3096-.0776.1168-.085.2248-.085.2686 0 .0321.005.1782.1025.2716-.04.0175-.1776.0847-.1776.2512 0 .143.115.368.558.368.393 0 .5606-.1782.5606-.3797 0-.4497-.3554-.4497-.6457-.4497h-.1451c-.065-.006-.1301-.0701-.1301-.1782 0-.0672.0225-.1022.0225-.1022.0325.0204.1226.073.2703.073.3053 0 .4504-.2073.4504-.4322 0-.149-.0675-.2512-.0926-.2833.03-.0233.0576-.035.0926-.0467-.0024.0087-.0074.0233-.0074.0526 0 .073.0425.1255.1076.1255.065 0 .1076-.0555.1076-.1255zm-.4855.2774c0 .149 0 .327-.1726.327-.1727 0-.1727-.181-.1727-.327 0-.149 0-.327.1727-.327.1726 0 .1726.181.1726.327zm.2403 1.101c0 .1139-.0826.2628-.3429.2628-.2502 0-.3453-.1343-.3453-.2687 0-.1752.1101-.1752.1526-.1752h.2353c.1927 0 .3003.0497.3003.181zM53.9808 15.2717c0-.1636-.1476-.2395-.2678-.2395-.115 0-.2202.07-.2752.2657h-.0025v-.2657l-.4154.0233v.1373c.1551 0 .1726 0 .1726.1139v.9024H53.02v.1373l.3153-.0088c.0951 0 .2553 0 .3454.0088v-.1373h-.2178v-.5227c0-.219.0376-.549.2603-.549 0 0-.0475.0496-.0475.1343 0 .1197.08.1781.1526.1781.0726 0 .1527-.0613.1527-.1781zM55.2521 16.2763c0-.0584-.025-.0643-.0525-.0672-.1176-.0087-.1176-.0467-.1176-.108v-.6309c0-.2774-.1852-.4468-.493-.4468-.0826 0-.4105.0059-.4105.2687 0 .1285.0876.184.1552.184.0776 0 .1576-.0614.1576-.184 0-.0935-.0575-.146-.0575-.146.0525-.0117.0726-.0175.1476-.0175.1502 0 .2153.1401.2153.3387v.1051c-.3604.0088-.6883.149-.6883.4556 0 .2424.2353.3359.423.3359.1526 0 .2552-.1022.3078-.2337 0 .0614 0 .2161.2277.2161h.1051c.0501 0 .0801 0 .0801-.07zm-.4554-.333c0 .2512-.1627.3154-.2353.3154-.1026 0-.1601-.1197-.1601-.2307 0-.3212.3303-.3563.3954-.362zM57.3443 16.3464v-.1373h-.1727v-.7651c0-.219-.06-.4118-.3378-.4118-.1777 0-.2978.1139-.3654.2657-.0476-.257-.2478-.2657-.3279-.2657-.1801 0-.3078.1197-.3803.295h-.0025v-.295l-.4304.0233v.1373c.1551 0 .1726 0 .1726.1139v.9024h-.1726v.1373l.3153-.0088.3153.0088v-.1373h-.1727v-.6104c0-.3241.1927-.4614.3179-.4614.04 0 .09.0146.09.2716v.8002h-.1626v.1373l.3078-.0088.3128.0088v-.1373h-.1727v-.6104c0-.3241.1927-.4614.3179-.4614.04 0 .09.0146.09.2716v.8002h-.1626v.1373l.3078-.0088zM59.8294 15.079l-.0526-.7039h-1.449l-.0526.7038h.1177c.0225-.3212.04-.5665.3603-.5665h.1227v1.6967h-.3354v.1373c.1202-.0088.3804-.0088.513-.0088.1327 0 .393 0 .513.0088v-.1373h-.3353v-1.6967h.1202c.3203 0 .3378.2424.3603.5665zM60.8104 16.0047c0-.0526-.0476-.0526-.06-.0526-.0426 0-.0476.0146-.0601.0555-.0601.1781-.2053.2395-.3054.2395-.2802 0-.2802-.365-.2802-.5374h.6256c.0626 0 .08-.0029.08-.0847 0-.2599-.09-.6016-.478-.6016-.3227 0-.548.257-.548.6659 0 .4234.2503.6746.5781.6746.3354 0 .448-.2979.448-.3592zm-.2378-.3914h-.468c.0025-.1489.0101-.4847.2303-.4847.2377 0 .2377.4176.2377.4847zM61.7839 15.9404c0-.1723-.0776-.2628-.1126-.3008-.0826-.0963-.1727-.1168-.2753-.1402-.1176-.0292-.2528-.0584-.2528-.2015 0-.1781.1752-.181.2227-.181.2203 0 .2328.1869.2378.2482.0024.0438.0075.0555.0576.0555.06 0 .06-.0146.06-.0818v-.2336c0-.0555 0-.0818-.045-.0818-.02 0-.0701.0321-.1026.0526-.0426-.0292-.1127-.0526-.2078-.0526-.1801 0-.4004.073-.4004.3826 0 .143.0676.219.0976.254.0801.0935.1752.1169.2903.1432.1001.0233.2528.0584.2528.2394 0 .1723-.1126.2161-.2252.2161-.1802 0-.2528-.1372-.2953-.33-.01-.0408-.0126-.0496-.0601-.0496-.06 0-.06.0175-.06.0847v.3183c0 .0555 0 .0818.045.0818.0175 0 .0225 0 .0676-.035a.8267.8267 0 01.06-.0468c.1001.0818.2052.0818.2428.0818.3078 0 .4029-.2045.4029-.4235zM62.7023 15.99v-.1606h-.1176v.1577c0 .1577-.04.26-.1126.26-.1126 0-.1126-.1899-.1126-.2453v-.8148h.3028v-.1373h-.3028v-.5578h-.1176c-.0025.2453-.0726.5783-.3254.59v.105h.1577v.8002c0 .3154.2027.3768.3654.3768.1902 0 .2627-.1986.2627-.3738zM63.5082 16.3464v-.1373h-.1552v-1.177l-.4354.0234v.1373c.1476 0 .1651 0 .1651.1139v.9024H62.91v.1373l.3054-.0088zm-.1202-1.7785c0-.1227-.0875-.2278-.1952-.2278-.1176 0-.1977.111-.1977.2278 0 .1226.0876.2277.1952.2277.1177 0 .1977-.111.1977-.2277zM64.9246 16.3464v-.1373h-.1726v-.7651c0-.219-.0601-.4118-.3379-.4118-.1802 0-.3078.1197-.3804.295h-.0024v-.295l-.4305.0233v.1373c.1552 0 .1727 0 .1727.1139v.9024h-.1727v.1373l.3153-.0088.3154.0088v-.1373h-.1727v-.6104c0-.3241.1927-.4614.3178-.4614.04 0 .0901.0146.0901.2716v.8002h-.1627v.1373l.3079-.0088zM66.1459 15.187c0-.0672-.0375-.1694-.1401-.1694-.0376 0-.1277.0087-.2228.108-.1-.0817-.2252-.0934-.2953-.0934-.3028 0-.4504.2044-.4504.4322 0 .1256.0475.2424.12.3096-.0775.1168-.085.2248-.085.2686 0 .0321.005.1782.1026.2716-.04.0175-.1777.0847-.1777.2512 0 .143.1151.368.558.368.393 0 .5607-.1782.5607-.3797 0-.4497-.3554-.4497-.6457-.4497h-.1452c-.065-.006-.13-.0701-.13-.1782 0-.0672.0224-.1022.0224-.1022.0326.0204.1227.073.2703.073.3053 0 .4505-.2073.4505-.4322 0-.149-.0676-.2512-.0926-.2833.03-.0233.0576-.035.0926-.0467-.0025.0087-.0075.0233-.0075.0526 0 .073.0426.1255.1076.1255s.1076-.0555.1076-.1255zm-.4855.2774c0 .149 0 .327-.1727.327s-.1727-.181-.1727-.327c0-.149 0-.327.1727-.327s.1727.181.1727.327zm.2402 1.101c0 .1139-.0825.2628-.3428.2628-.2503 0-.3454-.1343-.3454-.2687 0-.1752.1102-.1752.1527-.1752h.2352c.1927 0 .3003.0497.3003.181z" style="-inkscape-font-specification:'Latin Modern Roman Demi'"/></g></svg>